<svg height="200px" width="200px" version="1.1" id="Capa_1" xmlns="http://www.w3.org/2000/svg" xmlns:xlink="http://www.w3.org/1999/xlink" viewBox="0 0 11.754 11.754" xml:space="preserve" fill="#000000"><g id="SVGRepo_bgCarrier" stroke-width="0"></g><g id="SVGRepo_tracerCarrier" stroke-linecap="round" stroke-linejoin="round"></g><g id="SVGRepo_iconCarrier"> <g> <path style="fill:#E7007D;" d="M11.147,0.522v0.482L0.608,3.326V3.05H0v5.254h0.608V7.886L2.891,8.49 C2.884,8.515,2.874,8.541,2.874,8.57v1.112c0,0.142,0.095,0.267,0.231,0.306l2.685,0.766c0.028,0.008,0.059,0.014,0.088,0.014 c0.068,0,0.136-0.023,0.192-0.066c0.079-0.059,0.125-0.152,0.125-0.252V9.364l4.951,1.309v0.559h0.608V0.522H11.147z M5.56,10.024 L3.511,9.441V8.653L5.56,9.194V10.024z M9.579,3.855l-7.43,0.701V3.919l7.43-1.646V3.855z"></path> </g> </g></svg>